<mxfile host="app.diagrams.net" modified="2024-01-19T05:44:30.220Z" agent="Mozilla/5.0 (X11; Ubuntu; Linux x86_64; rv:121.0) Gecko/20100101 Firefox/121.0" etag="9fS3tCBwOcXAJL5zadGp" version="22.1.21" type="device">
  <diagram name="Page-1" id="mfUkgNZJsiTBla2AsnIx">
    <mxGraphModel dx="491" dy="345" grid="1" gridSize="10" guides="1" tooltips="1" connect="1" arrows="1" fold="1" page="1" pageScale="1" pageWidth="827" pageHeight="1169" math="0" shadow="0">
      <root>
        <mxCell id="0" />
        <mxCell id="1" parent="0" />
        <mxCell id="EbcrsWa8xBmwf7AfLaCL-6" value="" style="ellipse;whiteSpace=wrap;html=1;aspect=fixed;fillColor=#A6C4FF;strokeColor=#36393d;" vertex="1" parent="1">
          <mxGeometry x="181.25" y="52.5" width="245" height="245" as="geometry" />
        </mxCell>
        <mxCell id="EbcrsWa8xBmwf7AfLaCL-4" value="" style="ellipse;whiteSpace=wrap;html=1;aspect=fixed;fillColor=#f8cecc;strokeColor=#b85450;" vertex="1" parent="1">
          <mxGeometry x="220" y="90" width="170" height="170" as="geometry" />
        </mxCell>
        <mxCell id="EbcrsWa8xBmwf7AfLaCL-1" value="" style="ellipse;whiteSpace=wrap;html=1;aspect=fixed;fillColor=#fff2cc;strokeColor=#d6b656;" vertex="1" parent="1">
          <mxGeometry x="252.5" y="122.5" width="105" height="105" as="geometry" />
        </mxCell>
        <mxCell id="EbcrsWa8xBmwf7AfLaCL-2" value="MatÃ©riel" style="ellipse;whiteSpace=wrap;html=1;aspect=fixed;fillColor=#e1d5e7;strokeColor=#9673a6;" vertex="1" parent="1">
          <mxGeometry x="280" y="150" width="50" height="50" as="geometry" />
        </mxCell>
        <mxCell id="EbcrsWa8xBmwf7AfLaCL-3" value="SE" style="text;html=1;strokeColor=none;fillColor=none;align=center;verticalAlign=middle;whiteSpace=wrap;rounded=0;" vertex="1" parent="1">
          <mxGeometry x="275" y="122.5" width="60" height="30" as="geometry" />
        </mxCell>
        <mxCell id="EbcrsWa8xBmwf7AfLaCL-5" value="Outils, services" style="text;html=1;strokeColor=none;fillColor=none;align=center;verticalAlign=middle;whiteSpace=wrap;rounded=0;" vertex="1" parent="1">
          <mxGeometry x="263.5" y="96.5" width="85" height="30" as="geometry" />
        </mxCell>
        <mxCell id="EbcrsWa8xBmwf7AfLaCL-8" value="&lt;font style=&quot;font-size: 12px;&quot;&gt;Logiciels d&#39;application&lt;/font&gt;" style="text;html=1;strokeColor=none;fillColor=none;align=center;verticalAlign=middle;whiteSpace=wrap;rounded=0;" vertex="1" parent="1">
          <mxGeometry x="242" y="62.5" width="127.5" height="30" as="geometry" />
        </mxCell>
      </root>
    </mxGraphModel>
  </diagram>
</mxfile>
